# xmcd
#
# Track frame offsets: 
#        150
#        28773
#        58436
#        112207
#        144322
#        175798
#        206691
#        220796
#        260645
#        315659
#
# Disc length: 4745 seconds
#
# Revision: 0
# Processed by: cddbd v1.5.2PL0 Copyright (c) Steve Scherf et al.
# Submitted via: ExactAudioCopy v1.0b4
#
DISCID=9d12870a
DTITLE=Warren Haynes Band - Live At The Moody Theater [disc 2]
DYEAR=2012
DGENRE=Blues Rock
TTITLE0=Frozen Fear
TTITLE1=Dreaming The Same Dream
TTITLE2=Pretzel Logic
TTITLE3=Fire In The Kitchen
TTITLE4=A Change Is Gonne Come
TTITLE5=Spanish Castle Magic
TTITLE6=WHB Intro
TTITLE7=Tear Me Down
TTITLE8=Your Wildest Dreams
TTITLE9=Soulshine
EXTD=
EXTT0=
EXTT1=
EXTT2=
EXTT3=
EXTT4=
EXTT5=
EXTT6=
EXTT7=
EXTT8=
EXTT9=
PLAYORDER=
